<svg id="Layer_1" data-name="Layer 1" xmlns="http://www.w3.org/2000/svg" viewBox="0 0 469.16 143.37"><defs><style>.cls-1{font-size:45px;}.cls-1,.cls-3,.cls-4{fill:#fff;}.cls-1,.cls-3{font-family:AcroterionJF;}.cls-2{letter-spacing:-0.02em;}.cls-3{font-size:73px;letter-spacing:0.07em;}</style></defs><title>sample-logowhite</title><text class="cls-1" transform="translate(59.53 38.25)">A <tspan class="cls-2" x="47.92" y="0">L</tspan><tspan x="76.63" y="0">ittle Bit</tspan></text><text class="cls-3" transform="translate(231.38 102.13)">Kneady</text><path class="cls-4" d="M171.16,68.57c-.56.5-1.34,1.14-1.33,2a1.51,1.51,0,0,0,1.31,1.4c1.61.28,3.42-1.69,4.05-3a2.33,2.33,0,0,0-1.66-3.37c-1.12-.22-3.33.81-2.3,2.17.21.28.89,0,.66-.33-.78-1,.94-1.39,1.61-1.22a1.76,1.76,0,0,1,1,.77,2.15,2.15,0,0,1-.41,2.53,5.81,5.81,0,0,1-1.87,1.69c-.78.34-1.6.1-1.55-.85,0-.64.57-1,1-1.43s-.2-.61-.49-.36Z"/><path class="cls-4" d="M172.66,67.26c4-1.89,11,.45,15.12,1.28q5.37,1.09,10.64,2.61a90.13,90.13,0,0,1,12.5,4.34c4.18,1.92,9.49,7.66,4.91,12.41-2.85,3-9.88.14-13.12-.94a65.44,65.44,0,0,1-12.21-5.68c-6.55-3.83-12.58-8.48-18.92-12.64-.21-.14-.88.17-.57.37,9.62,6.32,18.68,13.74,29.6,17.78,4.67,1.73,14,6,16.6-.31,4.21-10.11-9.65-13.13-16.61-15.24A137.88,137.88,0,0,0,181.87,67c-3.11-.49-6.54-1.46-9.51-.08-.45.22,0,.5.3.34Z"/><path class="cls-4" d="M173.8,69.2c3.7-1,9.3,1.13,12.9,2.14s7,2.09,10.42,3.34a106.31,106.31,0,0,1,11.35,4.76,16,16,0,0,1,4.85,3.26c1.37,1.6,2.71,6.85.05,8.38-3.83,2.19-10.87-1.43-14.35-3a73,73,0,0,1-9-5.07c-6-3.92-11.45-8.54-17.21-12.74-.21-.15-.87.15-.57.37,9,6.56,17.43,14.08,27.76,18.52,4.14,1.79,12.16,6.3,14.78.6,4-8.6-8.94-12.24-14.67-14.46a139.43,139.43,0,0,0-14.79-4.81c-3.63-1-7.92-2.7-11.68-1.64-.43.12-.33.52.11.4Z"/><path class="cls-4" d="M173.36,67.79c3.42-1.62,9.47-.27,13.11.17q6.42.78,12.76,2.09c5.21,1.09,22.12,3.46,18.66,12.13-2.63,6.62-20.81-1.36-25.07-3.21-6.86-3-13.38-6.68-20.1-10-.23-.12-.88.21-.57.37,10.19,5,20,10.91,31.08,13.87,3.37.9,9.33,2.75,12.82,1.81,1.7-.45,2.19-1.16,2.57-3,1.94-9-11.07-10.73-17.14-12.08a149.72,149.72,0,0,0-16.59-2.71c-3.71-.39-8.3-1.52-11.82.15-.45.22,0,.5.29.33Z"/><path class="cls-4" d="M170.86,69.52a2.75,2.75,0,0,0,.85-3.75c-.94-1.42-2.63-1.09-3.79-.16a5.1,5.1,0,0,0-1.77,2.12,2,2,0,0,0,1,1.9,3,3,0,0,0,4-.65c.2-.26-.53-.21-.68,0a2,2,0,0,1-3.28-.32c-.73-1.11.5-2.24,1.35-2.91a1.71,1.71,0,0,1,2.82,1,2.38,2.38,0,0,1-.91,2.57c-.39.29.22.39.45.23Z"/><path class="cls-4" d="M166.92,66.31c-10.84-1.9-20.58-6.87-30.84-10.58C132.52,54.45,121.57,49.4,118,53c-4.89,5,14.4,7.17,15.57,7.48,10.73,2.85,21.15,5.77,32.07,7.92.19,0,.82-.26.59-.31-8.16-1.6-16.29-3.07-24.25-5.55a108.06,108.06,0,0,0-12.23-3.39c-1.25-.24-2.36-.35-3.62-.56a14.86,14.86,0,0,1-6.28-1.79c-1.62-.79-1.36-1.64.8-2.57q1.71-3,4.91-1.18c1.12.25,2.24.53,3.35.84,1.66.46,3.3,1,4.93,1.54,3.81,1.31,7.53,2.86,11.26,4.38,7,2.83,13.91,5.5,21.34,6.8.18,0,.84-.26.46-.33Z"/><path class="cls-4" d="M371,32c8.42-2.21,14.42,3.8,22.44,4.12,3.52.13,6.9-.73,8.88-3.87,1.14-1.81,2.47-6.1,0-7.59-1.13-.68-2.34.23-3.4.32-5.8.5-7.06,1.13-11.6.85a23.23,23.23,0,0,0-3.54-.05c-3.93.28-7.87,1.5-11.69,2.35-.44.09-.36.37.07.27,3.28-.72,6.61-1.7,9.94-2.12,3.66-.46,7,.41,10.65.32a36,36,0,0,0,4.65-.75c4.74-.74,6.05-.09,5.39,3.46-.71,3.81-3.62,6.11-7.73,6.47-5.11.46-9.83-2.67-14.58-4a17.58,17.58,0,0,0-9.57-.05c-.42.11-.36.39.08.27Z"/><path class="cls-4" d="M280.34,27.43c-7.57,3.55-13.86-1.77-21.27-.22-4.14.86-7.21,3.76-7.61,8.18-.55,6,2.74,3.93,6,2.47,4.07-1.83,7.89-1.3,12-2.36,3.58-.91,7-2.74,10.37-4.19.47-.2,0-.34-.26-.21-2.49,1.06-5,2.24-7.49,3.19-3.7,1.39-7.13,1.17-10.85,1.93a14.9,14.9,0,0,0-3.4,1.12c-1.2.55-4.18,2.27-5.46.68-1-1.19.19-4.79.72-6,3.74-8.27,13.12-3.52,19.36-2.91a15.18,15.18,0,0,0,8.32-1.58c.44-.2-.23-.23-.43-.13Z"/><path class="cls-4" d="M280.82,23.88A14.32,14.32,0,0,0,282,40.51c.12.15.81-.1.68-.26a14.21,14.21,0,0,1-1.13-16.49c.07-.11-.6-.07-.72.12Z"/><path class="cls-4" d="M368.07,23.31a10.36,10.36,0,0,1,1.36,14.23s.58,0,.71-.13a10.44,10.44,0,0,0-1.38-14.34c-.15-.12-.78.17-.69.24Z"/><path class="cls-4" d="M368.61,22.66C353.66,18.12,336.93,20,321.5,20c-8.31,0-16.62,0-24.92.08-5.85,0-11.43.25-16.87,2.58-.46.2,0,.54.31.38,7.52-3.21,16-2.47,24-2.49l21.09-.07c14.19,0,29.35-1.55,43.1,2.63.28.09.85-.33.43-.46Z"/><path class="cls-4" d="M282.65,40.79l56.52,1.26c8.28.19,16.92,1.07,25.19.49,3.68-.25,7.16-1.95,6.88-6.12,0-.26-.75-.11-.73.19.49,7.15-10.39,5.47-14.21,5.38l-10.91-.24-20.82-.47-41.65-.93c-.29,0-.76.43-.27.44Z"/><path class="cls-4" d="M280.77,22.87c.25,0,.78-.38.29-.38-.25,0-.77.38-.29.38Z"/></svg>