<svg id="Layer_1" data-name="Layer 1" xmlns="http://www.w3.org/2000/svg" viewBox="0 0 366.67 143.72"><defs><style>.cls-1{font-size:45px;letter-spacing:0.05em;}.cls-1,.cls-2,.cls-3{fill:#231f20;}.cls-1,.cls-2{font-family:EdwardianScriptITC, Edwardian Script ITC;}.cls-2{font-size:73px;letter-spacing:0.07em;}</style></defs><title>sample-logo</title><text class="cls-1" transform="translate(41.26 36.9)">A Little Bit</text><text class="cls-2" transform="translate(117.81 92.05)">Kneady</text><path class="cls-3" d="M53,69.47a3.21,3.21,0,0,0-1.81,1.58,1.58,1.58,0,0,0,.75,1.85c1.56.88,4.08-.74,5-2a2.37,2.37,0,0,0-1.23-3.66c-1.12-.32-3.26.41-2.69,1.91.26.69,1.7.28,1.45-.39-.12-.32,0-.47.35-.49a1.14,1.14,0,0,1,.91.62,1.49,1.49,0,0,1-.18,1.75,4.74,4.74,0,0,1-1.85,1.23c-.71.22-1.41-.15-1-.88.18-.3.65-.46.94-.61.88-.44.1-1.29-.65-.91Z" transform="translate(30.98 -2.5)"/><path class="cls-3" d="M54.52,69.18c3.66-.42,8.35,2.9,11.43,4.58q4.3,2.34,8.39,5a74.44,74.44,0,0,1,9.07,6.73c1.5,1.36,3.29,3,3.81,5,.47,1.86-.48,6.1-2.49,7.07C81.88,99,76.44,94.58,74.32,93a53.37,53.37,0,0,1-7-6.41c-4.91-5.28-9-11.29-13.45-16.92-.33-.42-1.73.1-1.34.59C59,78.38,64.68,87.32,73.06,93.67c3.71,2.81,9.9,8.15,13.75,3.23,5.53-7.07-2.29-12.42-7.69-16.32a112.18,112.18,0,0,0-14.39-8.81c-3.1-1.59-6.44-3.87-10-3.46-.74.08-1.18,1-.18.87Z" transform="translate(30.98 -2.5)"/><path class="cls-3" d="M54.87,71.16c3.18,0,6.81,3,9.39,4.66a115.06,115.06,0,0,1,9.38,6.72c2.29,1.83,4.57,3.72,6.68,5.77a18.6,18.6,0,0,1,2.71,3c1.6,2.44,2,8.67-2.9,8.38-2.38-.13-6.49-4.33-8-5.7A56.42,56.42,0,0,1,66.48,88c-4.39-5.26-8-11.12-12-16.67-.31-.43-1.71.08-1.34.59C59.05,80.14,64.21,89.06,72,95.63c3.37,2.85,8.22,7.8,12,3.46,5.45-6.21-3.35-12.43-7.72-16a115.74,115.74,0,0,0-11-8c-2.95-1.9-6.34-4.8-10-4.8-.59,0-1.52.88-.55.88Z" transform="translate(30.98 -2.5)"/><path class="cls-3" d="M55,69.83c3.28-.59,7.69,2.1,10.65,3.42s6,2.84,9,4.44c3.82,2.08,19.52,10,12.38,15.43-.74,1.47-1.72,1.7-2.91.71a25.26,25.26,0,0,1-3-1.31c-1.27-.62-2.49-1.33-3.69-2.06A63.25,63.25,0,0,1,68.73,84c-4.92-4.32-9.34-9.17-14-13.71-.39-.38-1.76.18-1.34.59,6.93,6.69,13.34,14.08,21.44,19.42,2.81,1.86,10.5,7.82,13.78,4,5.93-6.87-5-12.83-9.67-15.57a121,121,0,0,0-14.63-7.31c-2.77-1.16-6-3-9.12-2.48-.72.13-1.18,1-.18.88Z" transform="translate(30.98 -2.5)"/><path class="cls-3" d="M52.77,70.61a2.91,2.91,0,0,0,1.95-3.28c-.41-1.82-2.35-1.78-3.72-1.14a6.31,6.31,0,0,0-2,1.32,1.71,1.71,0,0,0,0,2.08,2.84,2.84,0,0,0,4.14.59c.79-.58-.44-.78-.91-.45-.91.67-1.77-.29-2-1.12S51,67,51.83,66.69c1.88-.59,1.84,2.73.37,3.31-.22.08-.57.33-.39.59s.75.1,1,0Z" transform="translate(30.98 -2.5)"/><path class="cls-3" d="M50.65,66.5c-8.26-4.27-14.84-10.72-22.09-16.4C25.82,48,16.89,39.74,12.82,43c-4.77,3.8,8.23,8.84,10,9.9,4.17,2.53,8,5.61,12.12,8.17,4.31,2.66,8.87,5,13.32,7.36.4.22,1.62-.38,1.36-.52-6.24-3.38-12.5-6.63-18.33-10.71a93.86,93.86,0,0,0-9.32-6.1c-1.89-1-9-3.32-8.5-6,.87-5.15,17.23,8.38,18.8,9.69,5.4,4.53,10.76,9,17,12.27.4.21,1.61-.38,1.36-.52Z" transform="translate(30.98 -2.5)"/><path class="cls-3" d="M220.4,113.58c8.48-2,15.44,3.42,23.62,4.13,4.52.4,9.95-.37,12.74-4.38,1.31-1.88,2.68-5.86.4-7.61-1.48-1.14-3.47-.38-5.08,0a37,37,0,0,1-10.53,1,45.83,45.83,0,0,0-5.36-.28c-4.82.14-9.65,1.47-14.36,2.39-1.22.23-2.51,1.65-.49,1.26,3.75-.73,7.57-1.79,11.38-2.14s7.52.37,11.32.36c2.2,0,4.11-.64,6.24-.84,2.81-.28,5.79-.54,5,3.21-.71,3.47-3.63,5.47-7,5.78-5.52.51-10.78-2.48-16-3.83a24.51,24.51,0,0,0-12.21-.12c-1.72.41-1.43,1.5.29,1.1Z" transform="translate(30.98 -2.5)"/><path class="cls-3" d="M117.27,108.19c-7.94,3.31-15.59-1.86-23.69-.33-4.92.94-10,4.14-9.85,9.85.13,5.11,4.18,3.35,7.29,2.13,5-2,9.34-1.62,14.32-2.8,4.11-1,8.07-2.8,12-4.28,1.92-.73.14-1.3-1-.85-3.45,1.3-6.88,2.75-10.45,3.71-3.14.85-6.31.64-9.49,1.18a25.7,25.7,0,0,0-5.67,1.76c-.43.18-2.63,1.53-3.24,1.17-1.4-.82-.7-4.19-.35-5.31,2.75-8.74,13.55-4.54,20-3.76A21.71,21.71,0,0,0,118.33,109c1.88-.78.12-1.34-1.06-.85Z" transform="translate(30.98 -2.5)"/><path class="cls-3" d="M117.07,105.18A13.23,13.23,0,0,0,118.45,122c.54.57,3.25-.46,2.72-1a12.79,12.79,0,0,1-1.23-16.29c.26-.38-2.36-.26-2.87.47Z" transform="translate(30.98 -2.5)"/><path class="cls-3" d="M216,104.8a9.45,9.45,0,0,1,1.62,13.93c-.54.6,2.15.24,2.61-.26a9.81,9.81,0,0,0-1.49-14.64c-.62-.46-3.09.71-2.74,1Z" transform="translate(30.98 -2.5)"/><path class="cls-3" d="M218.18,103.1c-17-4.59-35.5-2.75-52.89-2.7l-27,.08c-7.49,0-14.78,0-21.87,2.74-1.86.71-.2,2.08,1.24,1.53,8.29-3.15,17.64-2.31,26.34-2.34l24.14-.06c15.92,0,32.85-1.63,48.36,2.58,1.14.31,3.43-1.36,1.71-1.83Z" transform="translate(30.98 -2.5)"/><path class="cls-3" d="M119.77,122.57l61.92,1.23c9.88.19,19.83.75,29.71.57,4.44-.09,10.62-1.52,10.19-7.12-.08-1-3-.41-2.9.77.48,6.24-12.37,4.48-15.93,4.41l-12-.24-23-.45-46.94-.93c-1.18,0-3.05,1.72-1.1,1.76Z" transform="translate(30.98 -2.5)"/><path class="cls-3" d="M117.63,104.56c1,0,3.1-1.52,1.16-1.52-1,0-3.1,1.52-1.16,1.52Z" transform="translate(30.98 -2.5)"/></svg>